<svg xmlns="http://www.w3.org/2000/svg" viewBox="0 0 220 220" width="220" height="220">
  <defs>
    <filter id="ds" x="-20%" y="-20%" width="140%" height="140%">
      <feDropShadow dx="0" dy="4" stdDeviation="3" flood-color="#2a0820" flood-opacity="0.4"/>
    </filter>
  </defs>
  <!-- wonky hand-drawn fill -->
  <path d="M112,22 C119,62 123,76 195,87 C151,97 139,104 153,176
           C121,150 105,148 61,181 C77,131 71,117 19,96
           C73,92 85,84 108,24 Z"
    fill="#ffe14d" stroke="#2a0820" stroke-width="9" stroke-linejoin="round" filter="url(#ds)"/>
  <!-- sketchy inner double-line -->
  <path d="M111,40 C117,72 121,84 174,93 C137,101 128,108 139,160
           C115,139 103,138 72,162 C84,123 79,112 38,96
           C80,92 90,86 108,42"
    fill="none" stroke="#2a0820" stroke-width="2.5" stroke-linejoin="round" opacity="0.55"/>
  <!-- doodle shine marks -->
  <path d="M150,40 l10,-12 M168,52 l14,-6 M150,66 l12,2" fill="none" stroke="#2a0820" stroke-width="4" stroke-linecap="round"/>
</svg>
