<svg xmlns="http://www.w3.org/2000/svg" viewBox="0 0 220 220" width="220" height="220">
  <defs>
    <radialGradient id="gs" cx="0.42" cy="0.3" r="0.85">
      <stop offset="0" stop-color="#ffffff"/>
      <stop offset="0.3" stop-color="#9af6ff"/>
      <stop offset="0.7" stop-color="#22c4f5"/>
      <stop offset="1" stop-color="#0a86d8"/>
    </radialGradient>
    <linearGradient id="gsRim" x1="0" y1="0" x2="0" y2="1">
      <stop offset="0" stop-color="#ffffff" stop-opacity="0"/>
      <stop offset="1" stop-color="#063a66" stop-opacity="0.5"/>
    </linearGradient>
    <filter id="gsd" x="-25%" y="-25%" width="150%" height="150%">
      <feDropShadow dx="0" dy="7" stdDeviation="7" flood-color="#003a66" flood-opacity="0.45"/>
    </filter>
    <clipPath id="gsclip">
      <polygon points="110,18 134,78 198,82 148,122 164,184 110,150 56,184 72,122 22,82 86,78"/>
    </clipPath>
  </defs>
  <polygon points="110,18 134,78 198,82 148,122 164,184 110,150 56,184 72,122 22,82 86,78"
    fill="url(#gs)" stroke="#ffffff" stroke-width="11" stroke-linejoin="round" filter="url(#gsd)"/>
  <g clip-path="url(#gsclip)">
    <polygon points="110,18 134,78 198,82 148,122 164,184 110,150 56,184 72,122 22,82 86,78" fill="url(#gsRim)"/>
    <ellipse cx="96" cy="62" rx="30" ry="16" fill="#ffffff" opacity="0.85"/>
    <ellipse cx="80" cy="52" rx="11" ry="6" fill="#ffffff"/>
    <ellipse cx="128" cy="150" rx="20" ry="8" fill="#ffffff" opacity="0.4"/>
  </g>
</svg>
